<svg xmlns="http://www.w3.org/2000/svg" width="152" height="35" viewBox="0 0 152 35">
    <path fill="#FFF" d="M103.4 8.095c1.2.063 2.016.157 2.45.283 1.096.353 2.06.763 2.889 1.23.829.466 1.639 1.102 2.43 1.909.892.882 1.587 2.06 2.085 3.536.497 1.474.746 3.056.746 4.745 0 1.16-.191 2.364-.574 3.612-.383 1.248-.97 2.294-1.76 3.138-.791.845-1.735 1.267-2.832 1.267-1.122 0-2.085-.378-2.889-1.134-.803-.757-1.473-1.916-2.009-3.48-.05-.125-.076.43-.076 1.665 0 .605.012 1.348.038 2.23.025.883.064 1.69.115 2.42.076 1.488.115 3.152.115 4.992 0 .328-.957.492-2.87.492-.46 0-.95-.038-1.474-.113-.523-.076-.784-.19-.784-.34v-5.181c0-.328.026-.971.077-1.929.073-1.78.11-4.411.114-7.892v-2.394c-.05-1.865-.076-4.676-.076-8.433 0-.479.548-.718 1.645-.718.561 0 1.442.032 2.64.095zM149.457 8c.231 0 .405.064.52.192.116.128.174.396.174.805v13.427l1.426-.076c.128 0 .225.108.29.326.063.217.102.716.115 1.496.013.78.019 1.784.019 3.011 0 1.74-.09 2.942-.27 3.607-.051.153-.218.223-.5.21-.284-.012-.45-.019-.502-.019l-2.89-.076c-.18 0-.31-.039-.386-.115-.077-.077-.116-.218-.116-.422v-1.151c0-1.228-.064-1.906-.193-2.034h-8.286c-.129.128-.193.806-.193 2.034v1.15c0 .256-.116.41-.347.46-.231.052-.54.078-.925.078-1.156-.077-1.863-.115-2.12-.115h-.385c-.335 0-.54-.064-.617-.192-.103-.282-.174-.64-.212-1.074-.036-.399-.055-1.088-.058-2.066v-.275c0-.23.026-.78.077-1.65.051-1.022.077-1.866.077-2.531 0-.563.437-.806 1.31-.729.103 0 .18.013.232.038.308-.895.501-1.534.578-1.918.334-1.432.591-2.858.771-4.277.18-1.42.308-3.549.385-6.388.026-.46.058-.773.097-.94.038-.166.122-.313.25-.44.232-.23.591-.346 1.08-.346h.462c.591 0 1.4.026 2.428.077 1.388.05 2.416.076 3.084.076.437 0 1.22-.025 2.351-.076h.077c.514 0 .957-.013 1.33-.039.372-.025.662-.038.867-.038zM5.62 0c1.671 0 3.127.361 4.367 1.083 1.24.722 2.197 1.74 2.867 3.055.671 1.315 1.007 2.836 1.007 4.564 0 1.289-.266 2.423-.798 3.403-.531.98-1.266 1.779-2.202 2.398 2.76.954 4.139 2.862 4.139 5.724 0 1.65-.354 3.061-1.063 4.234-.71 1.173-1.665 2.056-2.867 2.65-1.203.592-2.564.889-4.083.889-1.29 0-2.468-.2-3.531-.6C2.392 27 1.55 26.538.93 26.009.31 25.48 0 25.061 0 24.751c0-.464.095-1.115.285-1.953.19-.838.418-1.572.683-2.204.266-.632.538-.948.817-.948.101 0 .215.065.342.194.455.567 1.132 1.09 2.031 1.566.899.477 1.791.716 2.677.716.887 0 1.608-.187 2.165-.561.557-.374.835-.974.835-1.799 0-1.624-1-2.436-3-2.436-.734 0-1.468.077-2.202.232-.177.052-.342-.142-.494-.58-.152-.438-.228-1.044-.228-1.818 0-.902.057-1.547.171-1.933.114-.387.298-.568.55-.542.431.077.849.116 1.254.116 2 0 3-1.147 3-3.442 0-1.134-.26-1.998-.778-2.591-.52-.593-1.095-.89-1.728-.89-.583 0-1.146.162-1.69.484-.544.322-.93.677-1.158 1.063-.051.104-.14.155-.266.155-.304 0-.62-.258-.95-.773-.329-.593-.626-1.367-.892-2.32-.266-.955-.399-1.664-.399-2.128 0-.283.178-.612.532-.986.354-.374.873-.696 1.557-.967C3.797.136 4.633 0 5.62 0zm124.515 8.056c.32.038.686.132 1.096.282.282.1.474.339.577.715.102.376.154 1.115.154 2.218l.038 4.135v4.7l-.038 5.338c0 .45-.045.852-.135 1.203-.09.35-.212.526-.365.526-.308 0-.616.038-.924.113-.512.1-1.05.15-1.615.15l-.77-.038c-.153 0-.3-.075-.441-.225-.141-.15-.212-.3-.212-.451l.038-3.196c0-1.027-.038-1.478-.115-1.353-.077.15-.436.758-1.077 1.823-.64 1.065-1.404 1.999-2.288 2.801-.885.802-1.725 1.203-2.52 1.203-1.435 0-2.55-.652-3.346-1.955-.795-1.303-1.192-3.007-1.192-5.113 0-2.556.532-4.818 1.596-6.785 1.064-1.968 2.48-3.484 4.25-4.55C124.616 8.534 126.487 8 128.462 8c.794 0 1.352.019 1.673.056zM26.39 8c1.818 0 3.207.423 4.168 1.27C31.52 10.114 32 11.358 32 13c0 1.846-.565 3.41-1.695 4.692-1.13 1.282-2.532 2.237-4.208 2.866-1.116.418-2.219.692-3.307.82l-.402.04.021.044c.162.303.366.566.61.788.637.577 1.436.865 2.397.865.753 0 1.39-.134 1.909-.403.52-.27.96-.565 1.324-.885.364-.32.572-.48.624-.48.208 0 .441.166.701.5.468.486.831 1 1.09 1.538.053.102.176.32.371.653.195.334.292.629.292.885 0 .205-.071.398-.214.577-.143.18-.357.385-.643.615-.805.718-1.662 1.212-2.571 1.481-.91.27-2.026.404-3.35.404-1.56 0-2.943-.404-4.15-1.212-1.208-.807-2.143-1.935-2.805-3.384C17.33 21.955 17 20.32 17 18.5c0-3.077.935-5.628 2.805-7.654C21.545 8.95 23.74 8 26.39 8zm36 0c1.818 0 3.207.423 4.168 1.27C67.52 10.114 68 11.358 68 13c0 1.846-.565 3.41-1.695 4.692-1.13 1.282-2.532 2.237-4.208 2.866-1.116.418-2.219.692-3.307.82l-.402.04.021.044c.162.303.366.566.61.788.637.577 1.436.865 2.397.865.753 0 1.39-.134 1.909-.403.52-.27.96-.565 1.324-.885.364-.32.572-.48.624-.48.208 0 .441.166.701.5.468.486.831 1 1.09 1.538.053.102.176.32.371.653.195.334.292.629.292.885 0 .205-.071.398-.214.577-.143.18-.357.385-.643.615-.805.718-1.662 1.212-2.571 1.481-.91.27-2.026.404-3.35.404-1.56 0-2.943-.404-4.15-1.212-1.208-.807-2.143-1.935-2.805-3.384C53.33 21.955 53 20.32 53 18.5c0-3.077.935-5.628 2.805-7.654C57.545 8.95 59.74 8 62.39 8zM49.262 8c.233 0 .408.062.524.187.117.125.175.388.175.787v12.244c.004 2.875.017 4.54.039 4.995 0 .25-.13.4-.388.45-.26.05-.686.075-1.282.075-.259-.025-.628-.032-1.107-.02-.41.012-.72.018-.932.02h-.446c-.337 0-.557-.063-.66-.188-.208-.324-.311-1.012-.311-2.06l-.039-3.823-.039-6.034-.039-2.061c-1.242.05-2.149.075-2.718.075-.078 2.598-.343 4.984-.796 7.158-.453 2.173-1.094 3.916-1.923 5.228C38.492 26.344 37.508 27 36.37 27c-.337 0-.686-.2-1.049-.6-.362-.4-.673-.874-.932-1.424-.259-.55-.388-1.012-.388-1.386 0-.3.09-.5.272-.6.466-.25.925-.75 1.378-1.499.454-.75.784-1.624.99-2.623.467-2.399.7-5.46.7-9.182 0-.424.026-.724.077-.899.052-.175.143-.325.272-.45.156-.15.337-.243.544-.28.207-.038.479-.057.816-.057.854 0 1.902.025 3.145.075 1.025.045 1.82.07 2.384.074h.18c.388 0 1.125-.024 2.213-.074h.078c.517 0 .964-.013 1.34-.038.375-.025.666-.037.873-.037zm23.35 0c.528 0 1.049.031 1.563.094.515.062.851.144 1.01.244.158.1.237.388.237.864 0 .2-.013.494-.04.882-.026.388-.026.745 0 1.07l.04 4.356v.113c.924-.026 2.309-.088 4.156-.188V12.73l.04-2.966c0-.45.02-.757.059-.92.04-.163.125-.307.257-.432.158-.15.39-.244.693-.282.265-.032.647-.05 1.145-.055h1.427l1.247.15c.343.175.514 1.176.514 3.003v9.677c.003 3.089.016 4.87.04 5.343 0 .25-.132.4-.396.45-.264.05-.699.076-1.306.076-.264-.025-.64-.032-1.128-.02-.418.012-.735.018-.95.02h-.455c-.343 0-.567-.063-.673-.188-.21-.325-.316-1.014-.316-2.065l-.04-3.83v-.864c-1.979.1-3.43.163-4.353.188v1.07c.002 3.064.015 4.81.04 5.238 0 .25-.133.4-.397.45-.263.05-.699.076-1.306.076-.158-.025-.376-.019-.653.019-.277.037-.468.056-.574.056-.475.05-.791.075-.95.075h-.356c-.343 0-.567-.063-.672-.188-.212-.325-.317-1.014-.317-2.065l-.04-4.13c0-.776-.026-1.94-.079-3.492-.053-1.302-.079-2.153-.079-2.554 0-.35.013-.626.04-.826l.04-1.089V9.69c0-.45.019-.758.059-.92.04-.163.125-.307.257-.432.158-.15.396-.244.712-.282.317-.037.818-.056 1.504-.056zm22.394-8c.735 0 1.242.05 1.52.153.076.025.862.038 2.357.038l1.33-.076.989-.039c.253 0 .45.064.589.191.14.128.209.382.209.764 0 .28-.038.598-.114.955 0 .153-.019.375-.057.668-.038.293-.057.554-.057.783 0 .458.013.821.038 1.088.025.268.038.529.038.783 0 .255-.171.427-.513.516-.342.089-.868.134-1.578.134l-1.824-.039c-1.52 0-2.813.013-3.877.039v8.44l.038 4.238-.001 1.17c-.004 3.993-.03 6.187-.075 6.583-.051.28-.114.452-.19.516-.077.063-.203.095-.38.095l-.989-.038c-.203-.026-.494-.038-.874-.038l-1.217.038c-.228 0-.392-.013-.494-.038-.076-.026-.202-.058-.38-.096-.177-.038-.304-.095-.38-.172-.076-.076-.114-.178-.114-.305l.038-2.444c.025-.331.038-.726.038-1.184v-3.437l.038-7.676-.038-3.246V1.337c0-.739.203-1.108.608-1.108.735 0 1.559-.038 2.471-.114.355-.026.773-.051 1.254-.077C93.891.013 94.423 0 95.006 0zm49.902 12.795c-1.388.052-2.403.077-3.045.077-.257 3.53-.848 6.726-1.773 9.59 1.028.026 2.685.04 4.972.04v-6.753c0-.767-.026-1.4-.077-1.899-.051-.498-.077-.837-.077-1.016v-.039zm-20.004 1.07c-.654.476-1.212 1.102-1.673 1.88-.462.776-.77 1.578-.923 2.405-.129.802-.193 1.517-.193 2.143 0 .577.039 1.047.116 1.41.077.363.192.545.346.545.385 0 .859-.238 1.423-.714.564-.476 1.103-1.053 1.615-1.73.077-.1.289-.382.635-.845.346-.464.622-.896.827-1.297.048-.235.074-.988.077-2.258v-.261c0-1.278-.051-1.917-.154-1.917-.744-.05-1.442.162-2.096.639zm-20.738-.457c-.077 0-.115.189-.115.567v.643c.026.227.032.567.02 1.02-.011.379-.018.687-.02.925v2.025c0 .278.09.593.268.946.332.73.746 1.355 1.243 1.871.498.517 1.066.776 1.703.776.485 0 .9-.303 1.244-.908s.517-1.475.517-2.61c0-.932-.217-1.802-.651-2.608-.434-.807-1.02-1.45-1.76-1.929-.74-.479-1.556-.718-2.45-.718zm-82.218 6.284l-.78 1.77c.403.006.808-.008 1.215-.043l.005-.001-.071-.143c-.175-.384-.29-.826-.346-1.327l-.023-.256zm36 0l-.78 1.77c.403.006.808-.008 1.215-.043l.005-.001-.071-.143c-.175-.384-.29-.826-.346-1.327l-.023-.256zM25.65 13.731c-.493 0-1 .192-1.52.577-.519.384-.98.904-1.382 1.557-.403.654-.67 1.379-.799 2.173 1.143-.05 2.11-.243 2.903-.576.792-.334 1.376-.718 1.753-1.154.377-.436.565-.872.565-1.308 0-.846-.507-1.27-1.52-1.27zm36 0c-.493 0-1 .192-1.52.577-.519.384-.98.904-1.382 1.557-.403.654-.67 1.379-.799 2.173 1.143-.05 2.11-.243 2.903-.576.792-.334 1.376-.718 1.753-1.154.377-.436.565-.872.565-1.308 0-.846-.507-1.27-1.52-1.27z" opacity=".4"/>
</svg>
