<svg xmlns="http://www.w3.org/2000/svg" width="51" height="51" viewBox="0 0 51 51">
    <defs>
        <linearGradient id="prefix__a" x1="50.592%" x2="49.507%" y1="38.465%" y2="59.485%">
            <stop offset="0%" stop-color="#076F39"/>
            <stop offset="100%" stop-color="#90C73E"/>
        </linearGradient>
        <linearGradient id="prefix__b" x1="50.778%" x2="47.031%" y1="17.355%" y2="112.936%">
            <stop offset="0%" stop-color="#076F39"/>
            <stop offset="100%" stop-color="#90C73E"/>
        </linearGradient>
        <linearGradient id="prefix__c" x1="50.127%" x2="49.901%" y1="5.96%" y2="101.253%">
            <stop offset="0%" stop-color="#076F39"/>
            <stop offset="100%" stop-color="#90C73E"/>
        </linearGradient>
    </defs>
    <g fill="none">
        <g>
            <path fill="url(#prefix__a)" d="M39.985.673C31.771.067 25.97 2.759 22.325 5.44c-1.912 1.41-3.401 2.926-4.514 4.262.822.08 1.655.122 2.497.122.415 0 .826-.01 1.238-.03v.002c.216-.012.43-.032.645-.047.154-.012.306-.02.46-.032h.001c5.207-.472 9.97-2.5 13.82-5.613.01-.004.017-.01.023-.016.299-.241.592-.494.88-.748.085-.075.167-.154.25-.229.179-.16.357-.32.529-.484h-.007c.645-.623 1.26-1.275 1.838-1.955z" transform="translate(.43) translate(4.812 40.42)"/>
            <path fill="url(#prefix__b)" d="M4.26 4.107c.873-1.122 1.806-2.202 2.792-3.23C5.104.594 2.965.5.632.674c1.058 1.25 2.232 2.4 3.508 3.431.041 0 .08.003.12.003z" transform="translate(.43) translate(4.812 40.42)"/>
        </g>
        <g fill="#80B742">
            <path d="M20.72 6.491c-3.08 2.268-5.309 4.745-6.804 6.723 1.167.454 2.374.821 3.613 1.102 1.313-1.587 3.097-3.412 5.403-5.092 6.031-4.39 13.211-6.175 21.41-5.342.726-1.046 1.379-2.146 1.949-3.296-12.085-1.628-20.465 2.145-25.57 5.905zM15.146 1.417C10.973.277 5.976-.203.1.59c.57 1.15 1.221 2.25 1.948 3.293 3.421-.349 6.661-.233 9.719.33 1.074-.988 2.2-1.922 3.378-2.796z" transform="translate(.43) translate(1.925 35.3)"/>
        </g>
        <g fill="#AACF37">
            <path d="M18.084 8.258c-3.531 2.596-6.113 5.388-7.89 7.685.958.683 1.967 1.303 3.016 1.85 1.602-2.02 3.88-4.445 6.955-6.704 7.973-5.864 17.717-8.205 29.042-6.998.421-1.103.767-2.238 1.033-3.404-15.424-1.772-25.877 2.954-32.156 7.571zM0 .683c.267 1.17.615 2.31 1.036 3.412 6.65-.705 12.757-.19 18.28 1.546 1.203-.774 2.538-1.537 4.004-2.258C17.366 1.017 9.66-.427 0 .683z" transform="translate(.43) translate(0 29.525)"/>
        </g>
        <path fill="url(#prefix__c)" d="M34.86 18.814c-.06-.163-.135-.327-.226-.521-.348.907-.962 1.484-1.762 1.88-.59.272-1.205.48-1.793.72-.897.36-1.809.67-2.673 1.08-1.062.501-1.828 1.348-2.327 2.412-.343.714-.59 1.464-.695 2.25-.06.385-.056.788-.084 1.189l.065.004c.07-.177.154-.335.222-.51.912-1.939 2.277-3.38 4.295-4.157.441-.18.88-.377 1.323-.572 1.011-.422 1.945-.942 2.677-1.774.016 0 .032 0 .048.018-.406.682-.937 1.213-1.625 1.61-.623.369-1.277.688-1.932 1.007-.817.41-1.62.853-2.266 1.51-1.162 1.175-1.944 2.57-2.474 4.131-.211.623-.39 1.262-.59 1.964-.227-.456-.441-.85-.638-1.258-.724-1.649-.788-3.294.064-4.896.41-.777.93-1.501 1.435-2.228.672-.962 1.426-1.89 2.1-2.885 1.953-2.89 2.498-6.046 1.617-9.44-.813-3.019-2.378-5.627-4.584-7.834-1.018-1.03-2.167-1.885-3.52-2.408-.096-.036-.177-.07-.304-.105.046.13.075.213.105.277.222.634.348 1.283.361 1.943.003.983-.201 1.911-.535 2.82-.494 1.402-1.223 2.685-1.937 3.969-.8 1.474-1.585 2.932-2.115 4.527-.53 1.547-.787 3.133-.528 4.752.394 2.46 1.39 4.68 2.91 6.657.327.43.701.826 1.043 1.24l.05-.046c0-.033-.015-.066-.03-.098-.594-1.662-1.013-3.349-1.185-5.11-.097-1.049-.098-2.113.062-3.17.2-1.315.592-2.592 1.112-3.818.64-1.462 1.294-2.908 1.917-4.372.694-1.637 1.097-3.348 1.006-5.156-.015-.049.02-.096.02-.143.22.763.277 1.505.27 2.279-.024 1.4-.386 2.742-.877 4.065-.507 1.37-1.047 2.723-1.523 4.095-.509 1.434-.745 2.924-.71 4.455.043 1.774.345 3.523.826 5.243.581 2.095 1.521 4.072 2.56 5.988.214.41.427.803.625 1.163.213-.092.457-.181.686-.27.283-1.41 1.907-2.097 3.324-2.254 3.964-.437 4.911-2.042 5.864-4.205.51-1.162.641-2.367.678-3.623.04-.821-.048-1.613-.331-2.395z" transform="translate(.43)"/>
    </g>
</svg>
