<svg xmlns="http://www.w3.org/2000/svg" width="114" height="34" viewBox="0 0 114 34">
    <path fill="#FFF" d="M77.868 30.612c-.08-.241 0-.563-.08-.804-.957-2.33-1.835-4.74-3.43-6.749-.319-.562-.957-.803-.957-1.687 1.356 0 2.393 0 3.59.24.717.081 1.435.242 2.073.081 2.872.08 5.504-.482 8.216-1.125.797-.16 1.675-.562 2.393-.08 1.036.643 1.994.723 3.11.964 1.356.482 2.872 1.125 4.068 2.09.798.562 1.117 1.526.718 2.49-.319.643-1.196 1.044-2.233.884-.32.08-.559-.08-.798-.241-1.436-.723-2.712-1.286-3.749-2.41l-2.153-1.929c-.32-.16-.638 0-1.117.562.08.161.16.322.319.482.877.804 1.914 1.688 2.792 2.33 1.116.804 2.233 1.527 3.589 2.17 1.117.562 2.313.402 3.51.08 1.276-.321 2.313-1.366 2.313-2.49 0-1.286-.24-2.33-1.277-2.973-.877-.884-2.073-1.366-3.27-1.929-.638-.321-1.436-.401-1.994-1.285.718-.482 1.436-1.205 2.154-1.527 1.675-.964 3.51-1.687 5.264-2.49 1.037.723 2.074 1.124 2.792 2.008.718.804 1.595 1.366 2.472 1.446 1.516.161 2.952.241 4.307.161 2.154-.08 2.952-.964 3.51-3.133-.399-.804-1.276-1.205-1.994-1.527-1.196-.562-2.473-.884-3.749-.964-.24 0-.797 0-.797-.482.638-.723 1.276-1.286 1.754-2.009 1.675-1.607 2.872-3.455 3.43-5.704.16-.643.399-1.366-.08-2.009-.08-.08-.239-.08-.478-.24-2.712-.322-4.786 1.124-6.54 3.293-.958 1.205-1.676 2.652-2.154 4.098-.16.964-.479 1.607-.718 2.33-.08.723-.479 1.285-1.197 1.607-1.595.643-3.19 1.446-4.706 2.089-.239.16-.558.08-1.037.16.24-.883.559-1.446.878-1.928.877-1.285 1.276-2.732 1.755-4.178.398-1.285.558-2.812.478-4.178-.16-1.526-1.436-1.848-2.393-1.366-.797.563-1.595 1.206-2.313 1.768-1.755 1.687-2.552 3.857-2.871 6.267-.24 1.366-.32 2.973-.638 4.5 0 .401-.16 1.044-.24 1.365-2.313 1.045-4.785 1.446-7.098 1.768-.639.16-1.436.321-2.314-.161l1.596-1.607c1.037-.803 1.994-1.687 2.871-2.57 2.313-2.09 1.994-3.054 1.197-5.545-.16-.321-.32-.643-.559-.964-.877-1.446-2.393-1.768-3.669-.884-1.116.804-2.233 1.768-2.871 2.973-1.037 2.17-2.154 4.339-2.553 6.588-.08.723-.16 1.366-.398 2.17-1.037-.322-1.994-.322-2.952-.482-1.834-.482-3.828-.965-5.822-1.125-1.596-.322-2.951-.804-4.467-1.286-.399 0-.638-.24-1.117-.562.638-.482 1.037-.723 1.596-.964 2.791-.964 4.865-2.812 6.78-4.74.478-.322.717-1.125 1.036-1.688.4-1.125.08-2.33-.877-3.133-.877-.804-1.994-1.125-3.19-.563-1.277.482-2.393 1.205-3.43 2.009-2.234 1.848-3.988 4.097-5.584 6.508-.478.482-.638 1.205-.877 1.848-1.037-.723-2.154-.804-3.43-.964-.718 0-1.356-.241-1.994-.643-.319-.241-.638-.482-1.196-.563-.32 0-.798.161-1.277.322-.319-.322-.478-.723-.717-.884-1.915-.562-3.43-1.687-5.424-1.928-.479.08-.718-.402-1.356-.804 1.515-.24 2.712-.482 3.988-.642 1.436-.161 2.712-.724 4.227-1.447 2.792-1.526 3.67-4.178 2.473-7.23-1.436-.644-2.951-.644-4.307.16-1.755.964-3.59 1.928-5.185 3.053-1.196.803-2.153 2.17-3.19 3.214-.479.482-.798 1.285-1.276 2.008l-4.706-1.687c-2.872-.884-5.663-1.928-8.535-3.053l-2.712-.964C17.807 2.49 12.622.964 7.2.16 6.24 0 5.284.08 4.247 0 2.652 0 1.535.723.26 1.607c-.319.24-.399.723.08 1.044 2.074-1.044 4.227-.964 6.381-.723 2.393.322 4.706.804 7.019 1.446 5.185 1.366 10.29 3.054 15.235 4.5.478.24.717.482 1.116.723-1.037 2.009-1.276 4.098-1.356 6.106-.08 2.09.08 4.098.957 5.946.639 1.205 1.436 2.33 2.712 2.973.958.401 1.994.32 2.553-.402.399-.482.638-1.125.797-1.607.479-.964.16-1.768 0-2.893l-.478-7.07c0-.321.08-.643.08-1.125 1.435.16 2.472.643 3.589.964 2.074.804 4.147 1.688 6.221 2.09 1.516.32 2.792.883 3.909 1.687-.718 3.937 0 7.793.957 10.927.24.883.638 1.767 1.037 2.33.399.642.797 1.124 1.356 1.526 1.037.804 2.073.563 2.712-.402.877-.803 1.276-2.008 1.196-3.053-.16-3.374-1.196-6.668-2.951-9.56-.08 0 0-.242-.24-.563 2.952.24 5.664 1.446 8.376 2.089 2.233.562 4.705.884 6.78 1.767.08.322.159.482.159.643.08 2.652.718 5.062 1.515 7.553.32 1.124.798 2.089 1.277 3.053.478.964 1.515 1.687 2.552 2.169 1.755.964 4.786-.964 4.068-3.133zM42.294 9.24c-.16 0-.16 0-.399-.161.32-.964 1.037-1.607 1.675-2.41 1.835-1.848 4.148-3.214 6.54-4.339.48.321.639.482.639.562.638 2.33-.16 4.259-2.393 5.223-.718.321-1.675.562-2.473.803-1.196.161-2.472.08-3.59.322zm63.171 2.41c-.478-2.49 1.436-5.463 4.308-7.15.16.401.239.642.239 1.044-.08 1.446-.957 2.57-1.914 3.776-.798.884-1.436 1.928-2.633 2.33zm-12.363 4.74c-.319-2.972.559-5.865 2.313-8.034.32-.482.479-.964.798-1.366.16-.16.479-.16.638-.16.16.08.24.401.32.562 0 1.285-.24 2.651-.878 3.696-.798 1.607-1.595 3.213-2.473 4.74-.24.402-.319.643-.718.562zm-33.26-.883c1.435-2.009 2.632-3.696 3.988-5.062 1.037-.884 1.914-2.17 3.11-2.812.479-.322.798-.482 1.117-.563 1.436 1.045 1.436 1.447 1.037 2.652l-.08.24c-.957 1.768-2.552 2.974-4.068 4.018-1.435.964-2.95 1.527-5.104 1.527zm-26.72 6.508c-.878-.482-1.357-1.286-1.676-2.25-.957-2.973-1.037-6.187 0-9.24 0-.16 0-.321.16-.401.16-.161.478-.483.638-.483.24 0 .478.161.558.483.32.24.479.562.479 1.044 1.037 3.214.797 6.508.399 9.882 0 .402-.24.643-.559.965zm46.022-2.732c-.32-1.205-.08-2.571.957-5.062.718-1.767 1.516-3.374 3.35-4.419.798.643 1.117 1.446 1.516 2.25.319 1.044 0 2.008-.639 2.812-.877 1.205-3.748 3.374-5.184 4.419zm30.15-1.687c-.957 0-2.074-.161-3.03-.402-.958 0-1.357-.804-1.197-1.848 2.153-.884 4.227-.964 6.062.402.16.482-.08 1.044-.479 1.366-.479.24-.798.482-1.356.482zM53.54 28.844c-1.037-.723-1.515-1.768-1.914-2.812-.479-1.768-.718-3.696-.877-5.624-.08-.804-.32-1.607 0-2.491.478-.402.638-.16 1.037.16.957 1.045 1.435 2.25 1.914 3.536.638 2.009.877 3.856.558 6.026 0 .402-.24.803-.718 1.205zm20.978 3.535c-.24-.16-.479-.402-.798-.643-.558-.642-1.037-1.205-1.436-2.008-.957-2.25-1.276-4.66-1.515-7.312 1.117.402 1.515.964 1.994 1.688 1.276 1.606 2.154 3.374 2.632 5.302.24.804.24 1.607.24 2.491 0 .402-.639.723-1.117.482z"/>
</svg>
